<svg width="108" height="107" viewBox="0 0 108 107" fill="none" xmlns="http://www.w3.org/2000/svg">
<g id="Layer 2">
<g id="Isolation Mode">
<path id="Vector" d="M11.1667 28.834C9.79417 30.903 7.6064 38.1195 7.6064 47.4308C7.6064 53.5629 10.508 59.9785 15.1581 65.9276C12.0275 64.0837 6.99324 60.9963 3.86263 58.5017C3.86263 58.5017 3.80815 58.2767 3.73435 57.951C3.66055 57.6253 3.56054 57.184 3.45846 56.7496C1.94109 49.7581 -2.20753 24.2699 21.0972 19.0142C17.4162 21.4754 13.9221 24.6704 11.1667 28.834Z" fill="#090909"/>
<path id="Vector_2" d="M97.9664 45.4367C97.9664 62.3649 90.1775 77.1657 79.2303 83.7901C85.6557 76.9375 87.3765 63.8335 87.3765 48.2814C87.3765 25.2965 69.5916 10.5039 52.4771 10.5039C44.9164 10.5039 38.7014 12.8815 34.0969 17.5205C31.0035 20.6406 28.6406 24.7791 27.1122 29.9015C21.7207 34.2821 17.959 40.4236 16.3202 48.3065C15.7142 46.1161 15.4039 43.8664 15.396 41.6074C15.396 35.6168 16.9699 29.9267 19.6032 24.7873C27.0846 10.1845 43.0935 0 55.7642 0C72.8871 0 97.9664 22.4599 97.9664 45.4367Z" fill="#090909"/>
<path id="Vector_3" d="M73.7747 91.6491C66.6079 100.785 56.805 107 45.8027 107C23.176 107 0.311279 83.1224 0.311279 59.2838C0.311279 45.3901 8.38438 32.8443 19.606 24.7848C24.0457 21.5892 28.9792 19.1035 34.0955 17.5179C38.2421 16.2329 42.51 15.5408 46.7366 15.5408C56.5119 15.5408 65.1705 18.803 71.8421 24.4176C66.112 22.6573 59.8791 21.7898 53.591 21.7898C42.8818 21.7898 33.7651 24.5094 27.1108 29.8996C21.7207 34.2821 17.959 40.4236 16.3202 48.3065C15.716 51.2267 15.396 54.3889 15.396 57.7844C15.396 81.6205 37.382 108.227 57.6472 99.0492C63.9532 96.1868 69.2826 93.7765 73.7747 91.6491Z" fill="#090909"/>
<path id="Vector_4" d="M42.9929 79.1429C34.0225 73.6364 25.3818 65.8691 20.2289 57.2651C19.3964 55.8919 18.6566 54.4737 18.0136 53.0184C17.4921 48.8472 20.8414 42.1141 25.199 41.1548C25.0983 42.6233 25.0528 44.1497 25.0528 45.7183C25.0528 50.7074 26.1963 55.5633 28.1737 60.1187C31.3864 67.5458 36.7972 74.1456 42.9929 79.1429Z" fill="#090909"/>
<path id="Vector_5" d="M97.5 87.1968C95.0102 90.0837 85.0238 100.938 68.3376 102.565C51.3127 104.225 38.5351 95.6154 34.5989 92.8033C26.7182 87.1887 22.4434 77.1494 19.6521 71.0199C30.7179 82.1826 47.331 90.6759 60.4204 90.6759C82.0125 90.6759 100.148 77.9025 100.148 57.7876C100.148 51.0878 97.7408 44.0133 93.5852 37.4469C100.733 43.1206 105.741 50.1121 107.004 58.5074C109.207 73.2359 98.9002 85.5673 97.5 87.1968Z" fill="#090909"/>
</g>
</g>
</svg>
