<svg width="136" height="107" viewBox="0 0 136 107" fill="none" xmlns="http://www.w3.org/2000/svg">
<g id="Layer 2">
<g id="Isolation Mode">
<path id="Vector" d="M52.7199 46.0822L42.9543 56.9208L27.83 73.6945L11.7161 56.8053L0.979736 45.5779L10.881 35.0869L11.6961 35.0681L26.8593 51.1433L42.604 35.0103L52.7199 46.0822Z" fill="#090909"/>
<path id="Vector_2" d="M88.3817 79.3876L78.6162 90.2273L63.4919 107L47.3779 90.1107L36.6416 78.8834L46.5439 68.3935L47.359 68.3735L62.5211 84.4487L78.267 68.3158L88.3817 79.3876Z" fill="#090909"/>
<path id="Vector_3" d="M103.081 27.6124L93.3154 16.7727L78.1911 0L62.0772 16.8893L51.3408 28.1166L61.242 38.6065L62.0583 38.6265L77.2203 22.5513L92.9662 38.6842L103.081 27.6124Z" fill="#090909"/>
<path id="Vector_4" d="M135.311 62.6227L125.546 51.783L110.421 35.0103L94.3074 51.8996L83.571 63.1258L93.4723 73.6168L94.2885 73.6357L109.451 57.5616L125.196 73.6945L135.311 62.6227Z" fill="#090909"/>
</g>
</g>
</svg>
