<svg width="141" height="107" viewBox="0 0 141 107" fill="none" xmlns="http://www.w3.org/2000/svg">
<g id="Asset 1 1" clip-path="url(#clip0_4181_358)">
<g id="Layer 2">
<g id="Isolation Mode">
<g id="Vector">
<path d="M39.1423 23.5425V47.8122C39.1423 51.5373 38.8219 54.3782 38.1809 56.3348C37.5578 58.2726 36.3293 59.8154 34.4954 60.963C32.6616 62.0918 30.1779 62.6562 27.0444 62.6562C24.2848 62.6562 21.7922 62.3458 19.5667 61.725V52.525C21.1334 52.9954 22.5934 53.2306 23.9465 53.2306C25.5489 53.2306 26.6883 52.8449 27.3649 52.0735C28.0414 51.2833 28.3797 49.8629 28.3797 47.8122V23.5425H39.1423Z" fill="#090909"/>
<path d="M64.54 62.0636L62.4836 54.4723H52.7091L50.5192 62.0636H41.4391L52.7091 23.5425H64.54L75.9436 62.0636H64.54ZM54.6053 46.0625H60.534L57.5696 34.8872L54.6053 46.0625Z" fill="#090909"/>
<path d="M118.941 23.5425V62.0636H108.552V34.5203L101.795 62.0636H94.6913L87.6943 34.5203V62.0636H79.3085V23.5425H93.9169L99.2047 44.0024L104.252 23.5425H118.941Z" fill="#090909"/>
<path d="M26.8713 76.9093H23.1916V81.3743H19.8179V69.4472H27.9793V72.287H23.1916V74.2268H26.8713V76.9093Z" fill="#090909"/>
<path d="M33.8585 81.5578C32.2709 81.5578 30.9754 81.0015 29.9721 79.8889C28.9743 78.7763 28.4754 77.2879 28.4754 75.4239C28.4754 73.6414 28.9523 72.1705 29.9059 71.0113C30.8651 69.8463 32.1937 69.2637 33.8916 69.2637C35.4627 69.2637 36.7416 69.8113 37.7283 70.9065C38.7206 72.0016 39.2167 73.4637 39.2167 75.2928C39.2167 77.186 38.7179 78.7035 37.7201 79.8452C36.7223 80.9869 35.4351 81.5578 33.8585 81.5578ZM33.8419 78.8491C34.4263 78.8491 34.8452 78.5811 35.0988 78.0452C35.3579 77.5035 35.4875 76.5161 35.4875 75.0831C35.4875 73.0093 34.961 71.9725 33.9081 71.9725C32.7725 71.9725 32.2047 73.155 32.2047 75.52C32.2047 77.7394 32.7505 78.8491 33.8419 78.8491Z" fill="#090909"/>
<path d="M49.8423 69.4472V77.3462C49.8423 78.8433 49.4206 79.9209 48.5772 80.5792C47.7392 81.2316 46.645 81.5578 45.2944 81.5578C43.8721 81.5578 42.7283 81.2433 41.8628 80.6141C41.0028 79.985 40.5728 78.9598 40.5728 77.5384V69.4472H44.0954V77.1103C44.0954 77.6811 44.2084 78.0977 44.4344 78.3598C44.666 78.6219 45.0325 78.753 45.5342 78.753C45.9532 78.753 46.2949 78.6598 46.5595 78.4734C46.8297 78.2812 46.9895 78.0656 47.0391 77.8268C47.0943 77.5879 47.1218 77.1219 47.1218 76.4287V69.4472H49.8423Z" fill="#090909"/>
<path d="M61.3526 81.3743H58.5329L55.4404 76.1054C55.0434 75.4297 54.6438 74.6084 54.2414 73.6414C54.4233 74.4103 54.5142 75.0627 54.5142 75.5986V81.3743H51.7028V69.4472H54.9773L57.6068 73.8161C58.1305 74.6841 58.5274 75.4472 58.7975 76.1054C58.6211 75.086 58.5329 74.0433 58.5329 72.9773V69.4472H61.3526V81.3743Z" fill="#090909"/>
<path d="M63.3289 81.3743V69.4472H67.6949C69.5912 69.4472 71.0107 70.0414 71.9534 71.2297C72.896 72.4181 73.3674 73.7928 73.3674 75.354C73.3674 77.1365 72.8602 78.587 71.8459 79.7054C70.8371 80.818 69.5251 81.3743 67.9099 81.3743H63.3289ZM66.7936 78.6307H67.6949C68.2682 78.6307 68.7506 78.3365 69.1419 77.7481C69.5389 77.1598 69.7373 76.3588 69.7373 75.3452C69.7373 74.4773 69.5609 73.7288 69.2081 73.0996C68.8608 72.4705 68.3564 72.156 67.6949 72.156H66.7936V78.6307Z" fill="#090909"/>
<path d="M80.6854 81.3743L80.0487 79.0239H77.0222L76.3442 81.3743H73.5327L77.0222 69.4472H80.6854L84.2162 81.3743H80.6854ZM77.6093 76.42H79.445L78.5272 72.9598L77.6093 76.42Z" fill="#090909"/>
<path d="M89.252 72.3045V81.3743H85.9692V72.3045H83.6291V69.4472H91.5921V72.3045H89.252Z" fill="#090909"/>
<path d="M96.049 69.4472V81.3743H92.5843V69.4472H96.049Z" fill="#090909"/>
<path d="M102.904 81.5578C101.316 81.5578 100.021 81.0015 99.0175 79.8889C98.0198 78.7763 97.5209 77.2879 97.5209 75.4239C97.5209 73.6414 97.9977 72.1705 98.9514 71.0113C99.9106 69.8463 101.239 69.2637 102.937 69.2637C104.508 69.2637 105.787 69.8113 106.774 70.9065C107.766 72.0016 108.262 73.4637 108.262 75.2928C108.262 77.186 107.763 78.7035 106.766 79.8452C105.768 80.9869 104.481 81.5578 102.904 81.5578ZM102.887 78.8491C103.472 78.8491 103.891 78.5811 104.144 78.0452C104.403 77.5035 104.533 76.5161 104.533 75.0831C104.533 73.0093 104.006 71.9725 102.954 71.9725C101.818 71.9725 101.25 73.155 101.25 75.52C101.25 77.7394 101.796 78.8491 102.887 78.8491Z" fill="#090909"/>
<path d="M119.384 81.3743H116.564L113.472 76.1054C113.075 75.4297 112.675 74.6084 112.273 73.6414C112.455 74.4103 112.546 75.0627 112.546 75.5986V81.3743H109.734V69.4472H113.009L115.638 73.8161C116.162 74.6841 116.559 75.4472 116.829 76.1054C116.652 75.086 116.564 74.0433 116.564 72.9773V69.4472H119.384V81.3743Z" fill="#090909"/>
</g>
<path id="Vector_2" d="M140.002 1.03339H0.977783V105.967H140.002V1.03339Z" stroke="#090909" stroke-width="10" stroke-miterlimit="10"/>
<path id="Vector_3" d="M156 -10H-18V118H156V-10Z" stroke="#090909" stroke-miterlimit="10"/>
</g>
</g>
</g>
<defs>
<clipPath id="clip0_4181_358">
<rect width="140.98" height="107" fill="white"/>
</clipPath>
</defs>
</svg>
